<svg width="24" height="33" viewBox="0 0 24 33" fill="none" xmlns="http://www.w3.org/2000/svg">
<g clip-path="url(#clip0_38_2)">
<path d="M13.1189 0.692985C13.1418 0.631866 13.2628 0.510837 13.2853 0.450928C13.1431 0.450928 13.1431 0.450928 12.7962 0.609778L12.6196 0.692985C11.6987 1.12685 10.8078 1.61965 9.99017 2.22873L9.85108 2.33444C9.69987 2.44917 9.43487 2.6864 9.29132 2.81099C8.96975 3.08122 8.70173 3.41091 8.44459 3.74116L8.32309 3.90025C7.84559 4.51378 7.50654 5.15801 7.23696 5.88525C6.66906 7.50016 6.95209 8.97606 7.65255 10.496C7.96667 11.1734 8.31952 11.877 8.39776 12.6294C8.44395 13.3962 8.37752 14.1953 7.84961 14.7978C7.53059 15.0955 7.23482 15.2613 6.79699 15.2895C6.14149 15.2976 5.67079 15.1958 5.17469 14.7408C4.40399 13.8976 4.29311 12.9053 4.27034 11.8098L4.26863 11.7066H4.1476L4.03697 11.8378L3.90554 12.0092C3.05766 12.9534 2.33914 14.0205 1.78281 15.162L1.72702 15.2769C1.15209 16.4302 0.721121 17.6042 0.50917 18.8776C0.484622 19.0372 0.459715 19.1948 0.424308 19.3524C0.274917 19.9707 0.261767 20.5952 0.259674 21.2294L0.259548 21.3549C0.258539 22.0596 0.285709 22.7464 0.428533 23.4388L0.45622 23.5674C0.62236 24.359 0.873489 25.1266 1.15757 25.8833L1.24291 26.109L1.29397 26.2516L1.33368 26.3624C1.38109 26.4965 1.43432 26.61 1.50624 26.7333L1.60599 26.8957C2.0909 27.748 2.63456 28.5803 3.35122 29.2579L3.48194 29.3768C5.0714 30.8751 6.88863 31.7065 9.00634 32.1663L9.19298 32.2058C10.038 32.385 10.859 32.4804 11.7216 32.4796C11.8833 32.4788 12.0449 32.4782 12.2066 32.4788C12.8126 32.4817 13.4018 32.4646 14.0015 32.3735L14.193 32.342C15.8865 32.0901 17.5305 31.5048 18.9963 30.6211C20.6 29.626 22.2476 27.9851 22.7142 26.0825C22.7477 25.922 22.7787 25.7672 22.8324 25.6121C23.2073 24.6232 23.2192 23.2976 23.0011 22.2701C22.9649 22.1133 22.9649 22.1133 22.9453 21.9449C22.8753 21.4072 22.7019 20.9141 22.4834 20.4207C21.813 18.9944 20.791 17.7633 19.2762 17.2134C19.3008 17.4023 19.3257 17.5884 19.3677 17.7743C19.4031 17.9299 19.4327 18.0846 19.4577 18.2422C19.522 18.7885 19.4338 19.2486 19.0946 19.6945C18.9036 19.8181 18.7679 19.8722 18.5415 19.8959L18.3533 19.8912C18.2373 19.8894 18.1211 19.885 18.0054 19.876C17.6812 19.714 17.4077 19.5088 17.2187 19.1953C17.0021 18.7168 17.013 18.0609 17.1532 17.5595L17.2187 17.395C17.3318 17.105 17.4662 16.833 17.6272 16.5667C17.9645 16.0159 18.3112 15.4661 18.5441 14.8614L18.6105 14.6718C18.9469 13.7342 18.9784 12.6573 18.8013 11.6806C18.3804 9.78937 17.1442 8.32425 15.5816 7.24895C15.0479 6.88221 14.4908 6.52955 14.0178 6.08491L13.8904 5.95774C13.3621 5.43631 12.9452 4.90336 12.6707 4.20684C12.3792 3.1907 12.4689 2.02889 12.9297 1.08633C13.0432 0.874528 13.0432 0.874528 13.1189 0.692985Z" fill="#D33D3E"/>
<path d="M11.8329 11.2829L11.7724 11.1619L11.6656 11.2649C10.23 12.7406 10.1248 14.6971 10.112 16.6346C10.1092 17.1906 10.111 17.7474 10.078 18.3026C9.97738 19.2776 9.71054 20.2822 8.932 20.9349L8.74668 21.0862V21.2073H8.62565C8.50521 21.2689 8.38403 21.3292 8.26256 21.3888C7.7129 21.6262 7.18778 21.6502 6.6256 21.4373L6.50765 21.3888C6.40637 21.3495 6.30525 21.3098 6.20507 21.2678V21.1467L6.08405 21.0862C5.85931 20.8096 5.73194 20.5629 5.62901 20.2222L5.59993 20.118H5.53942C5.03309 20.8486 4.39108 22.1081 4.38964 23.0227C4.16429 24.242 4.19857 25.4905 4.47758 26.6968L4.51067 26.8351C4.78934 28.0107 6.8592 30.6172 6.8592 30.6172C7.19046 30.9377 7.50321 31.2118 7.91985 31.4183C8.01876 31.4661 8.15523 31.5625 8.25222 31.6141C8.74811 31.8819 9.33972 32.2338 9.89645 32.3419C10.5781 32.4587 11.2422 32.4783 11.9327 32.4721C12.0468 32.471 12.6801 32.4024 12.8011 32.3722C13.1642 32.3116 13.7338 32.2059 14.1942 32.05C14.2349 32.0361 14.5468 31.9318 14.5863 31.9183C15.4248 31.6347 16.0946 31.1335 16.7951 30.587C17.1449 30.3463 17.4799 30.056 17.743 29.7223L17.8238 29.6187C18.4897 28.8169 19.1514 27.8753 19.3658 26.8351L19.3972 26.6535C19.6081 25.5788 19.6202 24.3845 19.3786 23.3159L19.348 23.1853C19.2564 22.7927 19.1432 22.4216 18.9736 22.0545H18.8526C18.832 22.3326 18.7889 22.5784 18.6937 22.8411C18.439 23.4364 17.9674 23.8236 17.3813 24.0779C17.0103 24.1345 16.6034 24.1464 16.2687 23.9609L16.1294 23.8699C15.9496 23.8113 15.853 23.7953 15.7588 23.6278L15.7058 23.4463C15.5259 22.9677 15.4967 22.5118 15.4914 22.0047C15.4847 21.2501 15.4553 20.5403 15.2149 19.817L15.1688 19.683C14.8882 18.8288 14.4345 18.0706 13.8556 17.3837C13.4698 16.9357 13.0624 16.4961 12.7333 16.0037L12.6196 15.8215C12.4722 15.5858 12.3305 15.3477 12.196 15.1044C11.6305 14.0269 11.3685 12.7738 11.7119 11.5855C11.7534 11.4851 11.7941 11.3844 11.8329 11.2829Z" fill="#FA7630"/>
<path d="M11.7723 20.9048C11.8615 20.6916 11.9079 20.646 11.8328 20.4207C11.4558 20.672 11.4558 20.672 10.7861 21.4482L10.683 21.5704C10.4544 21.8234 10.2894 22.0792 10.1294 22.3804L10.0439 22.5462C9.84067 22.9392 9.63842 23.3268 9.5153 23.7534L9.47275 23.9305C9.19804 25.0546 9.18587 26.11 9.65288 27.1817L9.71481 27.3193C9.03271 27.1529 7.85634 26.377 7.38879 25.8178C7.3096 25.7107 7.3096 25.7107 7.23372 25.6249C7.07112 26.0462 7.03137 26.4295 7.03327 26.8796L7.03705 27.1075C7.03815 27.3799 7.03705 27.7429 7.05218 27.9244C7.06012 28.0198 7.08243 28.348 7.1732 28.6506C7.24551 28.8916 7.66396 29.9154 8.0665 30.536L8.14144 30.6476C8.29088 30.8883 8.44655 31.0883 8.6507 31.2824L8.75036 31.3738C9.13708 31.7282 10.0313 32.2054 10.2594 32.2815C10.5424 32.3758 10.5424 32.3758 11.1406 32.3988C12.5392 32.4338 13.6076 32.2869 14.6581 31.2981C15.4537 30.4619 15.7625 29.4681 15.7489 28.3301C15.6899 26.9607 14.7389 25.9019 13.7995 24.9895C13.4812 24.6803 13.1718 24.3735 12.8949 24.026C12.7895 23.8894 12.6849 23.7546 12.5718 23.6244C12.4227 23.4589 12.3112 23.3148 12.2035 23.1173C12.1303 22.9831 11.9475 22.6403 11.895 22.4793C11.7107 21.937 11.6413 21.4679 11.7723 20.9048Z" fill="#F5BE27"/>
</g>
<defs>
<clipPath id="clip0_38_2">
<rect width="24" height="33" fill="white"/>
</clipPath>
</defs>
</svg>
